<svg width="17" height="21" viewBox="0 0 17 21" fill="none" xmlns="http://www.w3.org/2000/svg">
<path d="M2.49961 19.6C1.97711 19.6 1.52982 19.414 1.15773 19.0419C0.785651 18.6698 0.599609 18.2225 0.599609 17.7V6.30001C0.599609 5.77751 0.785651 5.33021 1.15773 4.95813C1.52982 4.58605 1.97711 4.40001 2.49961 4.40001H4.39961C4.39961 3.35501 4.77169 2.46042 5.51586 1.71626C6.26003 0.972089 7.15461 0.600006 8.19961 0.600006C9.24461 0.600006 10.1392 0.972089 10.8834 1.71626C11.6275 2.46042 11.9996 3.35501 11.9996 4.40001H13.8996C14.4221 4.40001 14.8694 4.58605 15.2415 4.95813C15.6136 5.33021 15.7996 5.77751 15.7996 6.30001V17.7C15.7996 18.2225 15.6136 18.6698 15.2415 19.0419C14.8694 19.414 14.4221 19.6 13.8996 19.6H2.49961ZM2.49961 17.7H13.8996V6.30001H11.9996V8.20001C11.9996 8.46917 11.9086 8.6948 11.7265 8.87688C11.5444 9.05896 11.3188 9.15001 11.0496 9.15001C10.7804 9.15001 10.5548 9.05896 10.3727 8.87688C10.1907 8.6948 10.0996 8.46917 10.0996 8.20001V6.30001H6.29961V8.20001C6.29961 8.46917 6.20857 8.6948 6.02648 8.87688C5.8444 9.05896 5.61878 9.15001 5.34961 9.15001C5.08044 9.15001 4.85482 9.05896 4.67273 8.87688C4.49065 8.6948 4.39961 8.46917 4.39961 8.20001V6.30001H2.49961V17.7ZM6.29961 4.40001H10.0996C10.0996 3.87751 9.91357 3.43021 9.54148 3.05813C9.1694 2.68605 8.72211 2.50001 8.19961 2.50001C7.67711 2.50001 7.22982 2.68605 6.85773 3.05813C6.48565 3.43021 6.29961 3.87751 6.29961 4.40001ZM2.49961 17.7V6.30001V17.7Z" fill="#9A3412"/>
</svg>
