<svg width="7" height="14" viewBox="0 0 7 14" fill="none" xmlns="http://www.w3.org/2000/svg">
<path d="M6.49135 0.00291293L4.87345 0C3.05578 0 1.88113 1.35233 1.88113 3.44542V5.03399H0.2544C0.113831 5.03399 0 5.16187 0 5.3196V7.62126C0 7.77899 0.113961 7.90672 0.2544 7.90672H1.88113V13.7145C1.88113 13.8723 1.99496 14 2.13553 14H4.25795C4.39852 14 4.51235 13.8721 4.51235 13.7145V7.90672H6.41438C6.55495 7.90672 6.66878 7.77899 6.66878 7.62126L6.66956 5.3196C6.66956 5.24386 6.64269 5.17133 6.59506 5.11773C6.54742 5.06414 6.48252 5.03399 6.41503 5.03399H4.51235V3.68734C4.51235 3.04008 4.64981 2.71151 5.4012 2.71151L6.49109 2.71107C6.63153 2.71107 6.74536 2.58319 6.74536 2.4256V0.288381C6.74536 0.130936 6.63166 0.00320423 6.49135 0.00291293Z" fill="#828181"/>
</svg>
