<svg width="11" height="14" viewBox="0 0 11 14" fill="none" xmlns="http://www.w3.org/2000/svg">
<path d="M5.23797 0C1.81851 0 0 2.45886 0 5.13998C0 6.38341 0.619168 7.93398 1.6103 8.42576C1.76081 8.50188 1.84269 8.46951 1.87622 8.31288C1.90585 8.19387 2.03608 7.62072 2.09924 7.35033C2.11874 7.2637 2.1086 7.18845 2.04622 7.10707C1.71714 6.68005 1.4559 5.90214 1.4559 5.17236C1.4559 3.3024 2.7808 1.48669 5.03522 1.48669C6.98474 1.48669 8.34863 2.90776 8.34863 4.94047C8.34863 7.23745 7.26547 8.82652 5.85792 8.82652C5.07889 8.82652 4.49871 8.14049 4.68275 7.29171C4.90499 6.28103 5.34091 5.19424 5.34091 4.46533C5.34091 3.81167 5.01183 3.2709 4.33963 3.2709C3.54657 3.2709 2.90323 4.15206 2.90323 5.33512C2.90323 6.08678 3.14029 6.5943 3.14029 6.5943C3.14029 6.5943 2.3558 10.1505 2.20998 10.8146C1.96356 11.939 2.24351 13.76 2.26768 13.9166C2.2825 14.0033 2.36906 14.0304 2.41741 13.9595C2.49461 13.8458 3.44285 12.3276 3.70877 11.2303C3.80546 10.8304 4.20239 9.20892 4.20239 9.20892C4.46362 9.73832 5.2177 10.182 6.0209 10.182C8.41023 10.182 10.1367 7.82548 10.1367 4.9011C10.1281 2.09747 7.98991 0 5.23797 0Z" fill="#828181"/>
</svg>
