<svg width="81" height="94" viewBox="0 0 81 94" fill="none" xmlns="http://www.w3.org/2000/svg">
<ellipse cx="46.4149" cy="40.7668" rx="33.8309" ry="29.7051" fill="#F6623E"/>
<path d="M75.8405 58.0203L78.099 55.377C79.5203 53.7123 79.5203 51.0041 78.099 49.3394C77.41 48.5335 76.4945 48.0893 75.5201 48.0893C74.789 48.0893 74.0903 48.3396 73.4965 48.8056L73.0207 46.9358L75.4653 44.0732C76.8872 42.4085 76.8872 39.7003 75.4653 38.0363C74.1566 36.5035 72.0933 36.3857 70.6641 37.6753L67.7673 26.2897C68.9242 24.9853 70.0323 23.7162 71.0766 22.4936C74.0861 18.9696 76.5331 15.2405 77.9671 11.9915C80.3899 6.50032 79.3757 3.56509 78.0984 2.06962C76.8216 0.574151 74.3144 -0.612493 69.6234 2.22403C66.8488 3.90211 63.6629 6.76684 60.6534 10.2908C59.6091 11.5134 58.5244 12.8101 57.4109 14.1645L47.685 10.7731C48.7865 9.10065 48.686 6.68505 47.3773 5.15222C45.9553 3.48823 43.6421 3.48753 42.2208 5.15222L39.7756 8.01483L38.1778 7.45782C38.5759 6.76191 38.7897 5.94402 38.7897 5.08805C38.7897 3.94794 38.4103 2.87552 37.7219 2.06962C36.3006 0.404933 33.9867 0.404933 32.5654 2.06962L30.3075 4.71295L18.799 0.699655C18.3889 0.55723 17.9456 0.688374 17.6439 1.04232L14.6814 4.5106C14.1839 5.09228 14.2496 6.08715 14.8169 6.57295L43.8541 31.4558C37.3069 40.0979 31.0001 48.7506 26.5476 54.9328L18.0064 51.0866C17.577 50.8934 17.091 51.0139 16.7658 51.3947L13.2546 55.5053C12.8005 56.0376 12.8005 56.8999 13.2546 57.4316L30.8098 77.9838C31.2579 78.5091 32.0071 78.5091 32.4558 77.9838L35.9663 73.8739C36.2915 73.4932 36.3951 72.9235 36.2295 72.4208L32.9448 62.4221C38.2254 57.2095 45.6157 49.8259 52.9981 42.1603L55.3048 45.8507C55.7143 46.5057 56.5448 46.5903 57.0471 46.0319C57.4657 45.5665 57.5235 44.786 57.1832 44.2417L54.7447 40.3412C58.6051 36.3074 62.4174 32.2377 65.8762 28.4028L76.8402 71.4936L75.328 73.2634L60.2589 49.161C59.8795 48.5539 59.1514 48.4221 58.6328 48.8663C58.1137 49.3112 58.0011 50.1636 58.3811 50.7707L74.2523 76.1556C74.6673 76.8198 75.5171 76.8966 76.0139 76.3142L78.9764 72.8459C79.2788 72.4927 79.3908 71.9731 79.2691 71.4936L75.8405 58.0203ZM43.8667 7.07919C44.375 6.48411 45.2236 6.48411 45.7319 7.07919C46.2462 7.68133 46.2462 8.66068 45.7319 9.26281L45.1863 9.90161L42.3117 8.89899L43.8667 7.07919ZM34.2113 3.99659C34.7251 3.39446 35.5622 3.39446 36.0765 3.99659C36.5909 4.59873 36.5909 5.57808 36.0765 6.18022L35.7176 6.59974L32.8436 5.59782L34.2113 3.99659ZM17.2867 5.31297L18.799 3.54323L55.6059 16.3785C52.3302 20.4284 48.854 24.8915 45.4079 29.4111L17.2867 5.31297ZM17.877 53.9478L24.9625 57.1382C23.1852 59.6159 21.8223 61.533 21.0183 62.6675L15.7233 56.4684L17.877 53.9478ZM22.6715 64.6029C26.7283 58.8727 48.1716 28.7568 62.2994 12.2171C65.1023 8.93495 68.1617 6.17528 70.6918 4.64527C72.5913 3.49599 75.1328 2.45107 76.453 3.99659C77.7731 5.54212 76.88 8.51755 75.8989 10.7414C74.592 13.7034 72.2342 17.2845 69.4307 20.5666C55.3042 37.1049 29.5794 62.2099 24.6849 66.96L22.6715 64.6029ZM33.7862 72.5731L31.6331 75.0937L26.3381 68.8947C27.3065 67.9541 28.9446 66.3585 31.0609 64.2779L33.7862 72.5731ZM74.5878 51.2664C75.1021 50.6642 75.9387 50.6642 76.453 51.2664C76.9673 51.8685 76.9673 52.8479 76.453 53.45L75.0853 55.0512L74.2289 51.6866L74.5878 51.2664ZM71.9547 39.9626C72.4685 39.3604 73.3056 39.3611 73.8199 39.9626C74.3282 40.5577 74.3282 41.5511 73.8199 42.1462L72.2649 43.9667L71.4085 40.6014L71.9547 39.9626Z" fill="#454545" stroke="#454545"/>
<path d="M70.3563 78.9639L60.4257 90.5899C60.0023 91.0863 59.974 91.9056 60.3637 92.4386C60.7991 93.0337 61.5983 93.0711 62.0717 92.5169L72.0023 80.8909C72.457 80.3585 72.457 79.4962 72.0023 78.9639C71.5482 78.4323 70.811 78.4323 70.3563 78.9639Z" fill="#454545" stroke="#454545"/>
<path d="M67.0367 75.0774C67.4914 74.5457 67.4914 73.6827 67.0367 73.1511C66.5826 72.6187 65.8455 72.6187 65.3914 73.1511L59.1845 80.4169C58.7611 80.9133 58.7328 81.7326 59.1225 82.2656C59.5579 82.8607 60.3571 82.8981 60.8305 82.3439L67.0367 75.0774Z" fill="#454545" stroke="#454545"/>
<path d="M63.3118 67.8116C63.7665 67.2792 63.7665 66.4162 63.3118 65.8846C62.8571 65.3523 62.1205 65.3523 61.6658 65.8846L57.3211 70.971C56.8977 71.4667 56.8694 72.2867 57.2597 72.8197C57.6945 73.4148 58.4937 73.4522 58.9671 72.898L63.3118 67.8116Z" fill="#454545" stroke="#454545"/>
<path d="M12.4176 9.934C11.9629 9.40237 11.2257 9.40237 10.7716 9.934L0.841028 21.5607C0.386324 22.0924 0.386324 22.9554 0.841028 23.487C1.28911 24.0116 2.03831 24.0116 2.48699 23.487L12.4176 11.861C12.8717 11.3286 12.8717 10.4663 12.4176 9.934Z" fill="#454545" stroke="#454545"/>
<path d="M17.3826 15.7474C16.9279 15.2151 16.1914 15.2151 15.7373 15.7474L9.53042 23.0139C9.10643 23.5096 9.07873 24.3289 9.46839 24.8619C9.90382 25.457 10.7024 25.4944 11.1758 24.9402L17.3826 17.6744C17.8373 17.142 17.8373 16.279 17.3826 15.7474Z" fill="#454545" stroke="#454545"/>
<path d="M17.5994 27.1202C18.048 27.6448 18.7966 27.6448 19.2453 27.1202L23.59 22.0338C24.0441 21.5015 24.0441 20.6392 23.59 20.1069C23.1353 19.5752 22.3987 19.5752 21.944 20.1069L17.5994 25.1933C17.1453 25.7256 17.1453 26.5879 17.5994 27.1202Z" fill="#454545" stroke="#454545"/>
</svg>
