<svg width="16" height="14" viewBox="0 0 16 14" fill="none" xmlns="http://www.w3.org/2000/svg">
<path d="M15.3555 1.65738C14.7845 1.93846 14.176 2.12477 13.5417 2.21523C14.1943 1.778 14.6924 1.09092 14.9265 0.262769C14.3181 0.669846 13.6463 0.957385 12.9303 1.11785C12.3526 0.427539 11.5291 0 10.6308 0C8.88797 0 7.48486 1.58738 7.48486 3.53339C7.48486 3.81339 7.50597 4.08262 7.5578 4.33892C4.94064 4.19569 2.62484 2.78815 1.06913 0.644C0.797528 1.17277 0.638214 1.778 0.638214 2.42954C0.638214 3.65292 1.19965 4.73738 2.03653 5.36523C1.53075 5.35446 1.03458 5.18969 0.614221 4.93015C0.614221 4.94092 0.614221 4.95492 0.614221 4.96892C0.614221 6.68554 1.70542 8.11139 3.13637 8.43985C2.88012 8.51846 2.60084 8.55615 2.31101 8.55615C2.10947 8.55615 1.906 8.54323 1.71502 8.49585C2.1229 9.89477 3.28033 10.9232 4.65656 10.9566C3.58552 11.8968 2.22559 12.4632 0.753381 12.4632C0.495216 12.4632 0.247608 12.4503 0 12.4148C1.39447 13.4238 3.04711 14 4.82931 14C10.6222 14 13.7893 8.61539 13.7893 3.948C13.7893 3.79185 13.7845 3.64108 13.7777 3.49138C14.4025 2.99385 14.9275 2.37246 15.3555 1.65738Z" fill="#828181"/>
</svg>
