<svg width="19" height="14" viewBox="0 0 19 14" fill="none" xmlns="http://www.w3.org/2000/svg">
<path d="M17.3762 1.34909C16.8839 0.366545 16.3497 0.185818 15.262 0.117091C14.1754 0.0343636 11.4431 0 9.07599 0C6.70435 0 3.97089 0.0343637 2.88544 0.115818C1.8 0.185818 1.26465 0.365273 0.767864 1.34909C0.26087 2.33036 0 4.02055 0 6.99618C0 6.99873 0 7 0 7C0 7.00255 0 7.00382 0 7.00382V7.00636C0 9.96927 0.26087 11.6722 0.767864 12.6433C1.26465 13.6258 1.79887 13.804 2.88431 13.8867C3.97089 13.958 6.70435 14 9.07599 14C11.4431 14 14.1754 13.958 15.2631 13.888C16.3508 13.8053 16.8851 13.6271 17.3773 12.6445C17.8888 11.6735 18.1474 9.97054 18.1474 7.00764C18.1474 7.00764 18.1474 7.00382 18.1474 7.00127C18.1474 7.00127 18.1474 6.99873 18.1474 6.99745C18.1474 4.02055 17.8888 2.33036 17.3762 1.34909ZM6.80529 10.8182V3.18182L12.4764 7L6.80529 10.8182Z" fill="#828181"/>
</svg>
