<svg width="58" height="93" viewBox="0 0 58 93" fill="none" xmlns="http://www.w3.org/2000/svg">
<ellipse cx="28.5158" cy="61.3905" rx="25.3732" ry="29.7051" fill="#F6623E"/>
<path d="M55.1246 27.2883H47.2737V21.7231C47.2737 9.74481 38.95 0 28.7186 0C18.4873 0 10.1635 9.74481 10.1635 21.7231V27.2883H2.31266C1.03546 27.2883 0 28.5005 0 29.9958V89.7082C0 91.2035 1.03546 92.4157 2.31266 92.4157H55.1246C56.4018 92.4157 57.4372 91.2035 57.4372 89.7082V29.9958C57.4372 28.5003 56.4018 27.2883 55.1246 27.2883ZM14.7888 21.7231C14.7888 12.7306 21.0377 5.41498 28.7186 5.41498C36.3996 5.41498 42.6484 12.7306 42.6484 21.7231V27.2883H38.2795V21.4033C38.2795 15.2314 33.9906 10.2101 28.7186 10.2101C23.4468 10.2101 19.1578 15.2313 19.1578 21.4033V27.2883H14.7888V21.7231ZM33.6541 27.2883H23.7831V21.4033C23.7831 18.2173 25.9972 15.6251 28.7186 15.6251C31.44 15.6251 33.6541 18.2171 33.6541 21.4033V27.2883ZM9.03387 63.532H4.62532V56.1722H9.03387V63.532ZM4.62532 68.947H9.03387V76.3071H4.62532V68.947ZM9.03387 50.757H4.62532V43.3971H9.03387V50.757ZM52.8119 87.0007H4.62532V81.722H11.3465C12.6237 81.722 13.6592 80.5098 13.6592 79.0145V40.6896C13.6592 39.1944 12.6237 37.9821 11.3465 37.9821H4.62532V32.7033H52.8119V87.0007Z" fill="#454545"/>
<path d="M32.2036 55.8234C30.0754 54.9425 27.7214 53.8785 26.3992 52.6643C25.9744 52.2744 25.7899 51.3865 25.9397 50.4553C26.0933 49.5014 26.6408 48.3467 27.7168 47.9673C29.9238 47.1888 31.4378 48.2222 31.9866 48.7023C33.0094 49.5977 34.4586 49.3528 35.2237 48.1554C35.9885 46.9578 35.7793 45.2612 34.7564 44.3658C34.2625 43.9335 33.0215 42.9833 31.2425 42.5285V41.3744C31.2425 39.8791 30.207 38.6669 28.9298 38.6669C27.6526 38.6669 26.6172 39.8791 26.6172 41.3744V42.7057C26.5392 42.731 26.4615 42.7548 26.3827 42.7826C23.8227 43.6855 21.9112 46.2412 21.3943 49.4526C20.9186 52.4072 21.7426 55.2705 23.5444 56.9251C25.0344 58.2933 27.0964 59.4532 30.6619 60.929C33.0644 61.9232 33.0123 64.2007 32.8782 65.1339C32.6071 67.0212 31.2511 69.0608 28.9143 69.0789C26.6349 69.0959 25.9238 68.9645 24.1707 67.6221C23.1019 66.8033 21.6685 67.1544 20.9694 68.4056C20.2702 69.657 20.5699 71.335 21.6386 72.1537C23.5261 73.5993 24.9158 74.1805 26.617 74.3897V75.6854C26.617 77.1806 27.6525 78.3928 28.9297 78.3928C30.2069 78.3928 31.2423 77.1806 31.2423 75.6854V74.1309C32.5416 73.7174 33.7255 72.956 34.7363 71.8689C36.1587 70.3386 37.1188 68.2657 37.4397 66.0317C38.0917 61.4914 35.9873 57.389 32.2036 55.8234Z" fill="#454545"/>
</svg>
