<svg width="22" height="22" viewBox="0 0 22 22" fill="none" xmlns="http://www.w3.org/2000/svg">
<g clip-path="url(#clip0_18180_948)">
<path d="M21.5559 20.4352L15.3502 14.179C16.5523 12.6821 17.276 10.78 17.276 8.70842C17.276 3.90696 13.4007 0.000152588 8.63799 0.000152588C3.87526 0.000152588 0 3.90692 0 8.70837C0 13.5098 3.8753 17.4166 8.63803 17.4166C10.693 17.4166 12.5797 16.687 14.0645 15.4752L20.2703 21.7313C20.4476 21.9101 20.6803 21.9999 20.9131 21.9999C21.1459 21.9999 21.3787 21.9101 21.556 21.7313C21.9115 21.3729 21.9115 20.7936 21.5559 20.4352ZM8.63803 15.5833C4.8773 15.5833 1.81854 12.4997 1.81854 8.70837C1.81854 4.91706 4.8773 1.83344 8.63803 1.83344C12.3988 1.83344 15.4575 4.91706 15.4575 8.70837C15.4575 12.4997 12.3987 15.5833 8.63803 15.5833Z" fill="#454545"/>
</g>
<defs>
<clipPath id="clip0_18180_948">
<rect width="21.8226" height="22" fill="white"/>
</clipPath>
</defs>
</svg>
