<svg width="13" height="14" viewBox="0 0 13 14" fill="none" xmlns="http://www.w3.org/2000/svg">
<path d="M6.36099 14C6.31968 14 6.27837 14 6.23677 13.9998C5.25882 14.0025 4.3552 13.9746 3.47643 13.9146C2.67077 13.8595 1.93535 13.5471 1.34957 13.0111C0.784344 12.494 0.398359 11.7947 0.202368 10.9329C0.0317926 10.1827 0.0227498 9.44619 0.0140877 8.73386C0.00780535 8.22276 0.00133262 7.61714 0 7.00126C0.00133262 6.38282 0.00780535 5.7772 0.0140877 5.2661C0.0227498 4.55388 0.0317926 3.81742 0.202368 3.06706C0.398359 2.2053 0.784344 1.50601 1.34957 0.988825C1.93535 0.452843 2.67077 0.140418 3.47653 0.0854102C4.3553 0.0254888 5.2591 -0.00249595 6.23915 0.000174347C7.21739 -0.00217551 8.12072 0.0254888 8.99949 0.0854102C9.80516 0.140418 10.5406 0.452843 11.1264 0.988825C11.6917 1.50601 12.0776 2.2053 12.2736 3.06706C12.4441 3.81731 12.4532 4.55388 12.4618 5.2661C12.4681 5.7772 12.4747 6.38282 12.4759 6.9987V7.00126C12.4747 7.61714 12.4681 8.22276 12.4618 8.73386C12.4532 9.44608 12.4442 10.1825 12.2736 10.9329C12.0776 11.7947 11.6917 12.494 11.1264 13.0111C10.5406 13.5471 9.80516 13.8595 8.99949 13.9146C8.15794 13.972 7.29345 14 6.36099 14ZM6.23677 12.906C7.19883 12.9086 8.08217 12.8814 8.94028 12.8228C9.54948 12.7813 10.0777 12.5594 10.5104 12.1635C10.9104 11.7974 11.1858 11.2924 11.3291 10.6625C11.4711 10.0379 11.4793 9.36736 11.4872 8.7189C11.4934 8.21123 11.4999 7.60988 11.5012 6.99998C11.4999 6.38998 11.4934 5.78873 11.4872 5.28106C11.4793 4.6326 11.4711 3.96204 11.3291 3.3374C11.1858 2.70743 10.9104 2.20242 10.5104 1.83638C10.0777 1.44053 9.54948 1.21868 8.94028 1.17713C8.08217 1.11849 7.19883 1.09147 6.23906 1.09382C5.27719 1.09126 4.39375 1.11849 3.53564 1.17713C2.92644 1.21868 2.39825 1.44053 1.96552 1.83638C1.56555 2.20242 1.29007 2.70743 1.14682 3.3374C1.0048 3.96204 0.996612 4.6325 0.988711 5.28106C0.982524 5.78916 0.976051 6.39083 0.974719 7.00126C0.976051 7.60902 0.982524 8.2108 0.988711 8.7189C0.996612 9.36736 1.0048 10.0379 1.14682 10.6625C1.29007 11.2924 1.56555 11.7974 1.96552 12.1635C2.39825 12.5593 2.92644 12.7812 3.53564 12.8227C4.39375 12.8814 5.27738 12.9087 6.23677 12.906ZM6.21355 10.418C4.53406 10.418 3.16755 8.88468 3.16755 6.99998C3.16755 5.11529 4.53406 3.582 6.21355 3.582C7.89313 3.582 9.25954 5.11529 9.25954 6.99998C9.25954 8.88468 7.89313 10.418 6.21355 10.418ZM6.21355 4.67576C5.07149 4.67576 4.14227 5.71845 4.14227 6.99998C4.14227 8.28151 5.07149 9.32421 6.21355 9.32421C7.3557 9.32421 8.28482 8.28151 8.28482 6.99998C8.28482 5.71845 7.3557 4.67576 6.21355 4.67576ZM9.60069 2.48825C9.197 2.48825 8.86965 2.85547 8.86965 3.30856C8.86965 3.76166 9.197 4.12888 9.60069 4.12888C10.0045 4.12888 10.3317 3.76166 10.3317 3.30856C10.3317 2.85547 10.0045 2.48825 9.60069 2.48825Z" fill="#828181"/>
</svg>
